<svg xmlns="http://www.w3.org/2000/svg" viewBox="0 0 450.33 520"><defs><style>.cls-1{fill:#71b8e6;}.cls-2{fill:#feee7f;}.cls-3{fill:#f05669;}</style></defs><title>Asset 1</title><g id="Layer_2" data-name="Layer 2"><g id="Guides"><polygon class="cls-1" points="281.46 32.5 225.17 0 168.88 32.5 112.58 65 56.29 97.5 56.29 97.5 0 130 0 195 0 195 56.29 227.5 56.29 227.5 56.29 162.5 112.58 130 168.88 97.5 225.17 65 281.46 97.5 281.46 162.5 281.46 162.5 281.46 162.5 281.46 227.5 281.46 292.5 281.46 292.5 337.75 325 337.75 260 337.75 195 337.75 130 337.75 130 337.75 65 281.46 32.5"/><polygon class="cls-2" points="450.33 325 450.33 260 450.33 260 450.33 195 450.33 195 450.33 195 450.33 130 394.04 97.5 394.04 97.5 337.75 130 394.04 162.5 394.04 227.5 394.04 227.5 394.04 227.5 394.04 292.5 394.04 357.5 394.04 357.5 394.04 357.5 337.75 390 281.46 357.5 225.17 325 168.88 292.5 168.88 292.5 112.58 325 168.88 357.5 168.88 357.5 225.17 390 281.46 422.5 337.75 455 337.75 455 394.04 422.5 450.33 390 450.33 390 450.33 390 450.33 325"/><polygon class="cls-3" points="281.46 422.5 225.17 455 225.17 455 168.88 422.5 112.58 390 56.29 357.5 56.29 357.5 56.29 292.5 112.58 260 168.88 227.5 225.17 195 225.17 130 168.88 162.5 168.88 162.5 168.88 162.5 112.58 195 56.29 227.5 56.29 227.5 56.29 227.5 0 260 0 260 0 325 0 390 56.29 422.5 112.58 455 168.88 487.5 225.17 520 281.46 487.5 281.46 487.5 281.46 487.5 281.46 422.5"/></g></g></svg>